<svg width="309" height="280" viewBox="0 0 309 280" fill="none" xmlns="http://www.w3.org/2000/svg">
<rect width="309" height="280" fill="url(#paint0_radial_12_34)"/>
<path d="M254 194.969C246.725 196.819 242.225 195.05 238.188 188.988L209.475 149.263L205.325 143.763L171.794 189.119C167.962 194.575 163.944 196.95 156.794 195.019L199.731 137.381L159.756 85.3188C166.631 83.9813 171.381 84.6626 175.6 90.8188L205.381 131.038L235.381 91.0376C239.225 85.5813 243.356 83.5063 250.256 85.5188L234.756 106.069L213.756 133.413C211.256 136.538 211.6 138.675 213.9 141.694L254 194.969ZM54.05 136.419L57.5625 119.144C67.125 84.9563 106.313 70.7501 133.338 91.8751C149.131 104.3 153.056 121.875 152.275 141.563H63.25C61.9125 177 87.4188 198.388 119.938 187.475C131.344 183.644 138.063 174.713 141.425 163.538C143.131 157.938 145.956 157.063 151.219 158.663C148.531 172.638 142.469 184.313 129.656 191.619C110.513 202.556 83.1875 199.019 68.8125 183.819C60.25 175 56.7125 163.825 55.125 151.875C54.875 149.9 54.375 148.019 54 146.125C54.0333 142.892 54.05 139.658 54.05 136.425V136.419ZM63.4125 134.044H143.863C143.338 108.419 127.381 90.2188 105.575 90.0626C81.6375 89.8751 64.45 107.644 63.4125 134.044Z" fill="white"/>
<defs>
<radialGradient id="paint0_radial_12_34" cx="0" cy="0" r="1" gradientUnits="userSpaceOnUse" gradientTransform="translate(154.5 140) rotate(90) scale(140 154.5)">
<stop stop-color="#DC0BAE" stop-opacity="0.8"/>
<stop offset="1" stop-color="#B4B4B4" stop-opacity="0"/>
</radialGradient>
</defs>
</svg>
