<svg width="309" height="280" viewBox="0 0 309 280" fill="none" xmlns="http://www.w3.org/2000/svg">
<rect width="309" height="280" fill="url(#paint0_radial_12_48)"/>
<g clip-path="url(#clip0_12_48)">
<path d="M127.756 220.468C142.519 220.468 154.5 208.486 154.5 193.723V166.979H127.756C112.993 166.979 101.011 178.96 101.011 193.723C101.011 208.486 112.993 220.468 127.756 220.468Z" fill="black"/>
<path d="M101.011 140.234C101.011 125.471 112.993 113.489 127.756 113.489H154.5V166.979H127.756C112.993 166.979 101.011 154.997 101.011 140.234Z" fill="#666666"/>
<path d="M101.011 140.234C101.011 125.471 112.993 113.489 127.756 113.489H154.5V166.979H127.756C112.993 166.979 101.011 154.997 101.011 140.234Z" fill="#999999" fill-opacity="0.2"/>
<path d="M101.011 86.7446C101.011 71.9816 112.993 60 127.756 60H154.5V113.489H127.756C112.993 113.489 101.011 101.508 101.011 86.7446Z" fill="#CCCCCC"/>
<path d="M154.5 60H181.245C196.008 60 207.989 71.9816 207.989 86.7446C207.989 101.508 196.008 113.489 181.245 113.489H154.5V60Z" fill="#EEEEEE"/>
<path d="M207.989 140.234C207.989 154.997 196.008 166.979 181.245 166.979C166.482 166.979 154.5 154.997 154.5 140.234C154.5 125.471 166.482 113.489 181.245 113.489C196.008 113.489 207.989 125.471 207.989 140.234Z" fill="#999999"/>
</g>
<defs>
<radialGradient id="paint0_radial_12_48" cx="0" cy="0" r="1" gradientUnits="userSpaceOnUse" gradientTransform="translate(154.5 140) rotate(90) scale(140 154.5)">
<stop stop-color="#DC0BAE" stop-opacity="0.8"/>
<stop offset="1" stop-color="#B4B4B4" stop-opacity="0"/>
</radialGradient>
<clipPath id="clip0_12_48">
<rect width="107" height="160.468" fill="white" transform="translate(101 60)"/>
</clipPath>
</defs>
</svg>
