<svg width="309" height="280" viewBox="0 0 309 280" fill="none" xmlns="http://www.w3.org/2000/svg">
<rect width="309" height="280" fill="url(#paint0_radial_12_51)"/>
<g clip-path="url(#clip0_12_51)">
<path d="M230.87 132.944L161.059 63.1409C157.042 59.1205 150.522 59.1205 146.5 63.1409L132.005 77.6379L150.392 96.0251C154.666 94.5818 159.566 95.5495 162.972 98.9559C166.395 102.384 167.356 107.325 165.876 111.614L183.598 129.336C187.886 127.858 192.833 128.813 196.256 132.242C201.043 137.027 201.043 144.781 196.256 149.567C191.469 154.355 183.716 154.355 178.926 149.567C175.327 145.965 174.437 140.677 176.259 136.243L159.732 119.715L159.73 163.208C160.897 163.785 161.999 164.556 162.971 165.525C167.756 170.309 167.756 178.061 162.971 182.854C158.185 187.638 150.427 187.638 145.646 182.854C140.86 178.062 140.86 170.309 145.646 165.525C146.829 164.344 148.197 163.45 149.658 162.851V118.955C148.197 118.359 146.83 117.472 145.645 116.282C142.02 112.659 141.147 107.339 143.006 102.888L124.88 84.7588L77.0164 132.621C72.9947 136.645 72.9947 143.165 77.0164 147.186L146.824 216.989C150.843 221.009 157.36 221.009 161.385 216.989L230.87 147.515C234.89 143.493 234.89 136.971 230.87 132.95" fill="white"/>
</g>
<defs>
<radialGradient id="paint0_radial_12_51" cx="0" cy="0" r="1" gradientUnits="userSpaceOnUse" gradientTransform="translate(154.5 140) rotate(90) scale(140 154.5)">
<stop stop-color="#DC0BAE" stop-opacity="0.8"/>
<stop offset="1" stop-color="#B4B4B4" stop-opacity="0"/>
</radialGradient>
<clipPath id="clip0_12_51">
<rect width="160" height="160" fill="white" transform="translate(74 60)"/>
</clipPath>
</defs>
</svg>
