<svg width="309" height="280" viewBox="0 0 309 280" fill="none" xmlns="http://www.w3.org/2000/svg">
<rect width="309" height="280" fill="url(#paint0_radial_12_45)"/>
<g clip-path="url(#clip0_12_45)">
<path fill-rule="evenodd" clip-rule="evenodd" d="M154.228 71C115.394 71 84 102.625 84 141.749C84 173.024 104.115 199.497 132.02 208.866C135.508 209.571 136.786 207.344 136.786 205.471C136.786 203.831 136.671 198.209 136.671 192.351C117.136 196.568 113.068 183.917 113.068 183.917C109.928 175.718 105.276 173.61 105.276 173.61C98.8824 169.276 105.742 169.276 105.742 169.276C112.835 169.745 116.556 176.538 116.556 176.538C122.834 187.314 132.95 184.269 137.019 182.395C137.6 177.826 139.462 174.664 141.438 172.907C125.857 171.267 109.464 165.176 109.464 138C109.464 130.27 112.253 123.945 116.671 119.025C115.974 117.269 113.532 110.005 117.37 100.283C117.37 100.283 123.3 98.4088 136.67 107.546C142.394 105.997 148.298 105.209 154.228 105.202C160.157 105.202 166.202 106.023 171.784 107.546C185.155 98.4088 191.085 100.283 191.085 100.283C194.923 110.005 192.479 117.269 191.782 119.025C196.318 123.945 198.991 130.27 198.991 138C198.991 165.176 182.598 171.149 166.901 172.907C169.459 175.132 171.667 179.349 171.667 186.026C171.667 195.513 171.552 203.128 171.552 205.469C171.552 207.344 172.832 209.571 176.319 208.868C204.224 199.495 224.339 173.024 224.339 141.749C224.454 102.625 192.945 71 154.228 71Z" fill="white"/>
</g>
<defs>
<radialGradient id="paint0_radial_12_45" cx="0" cy="0" r="1" gradientUnits="userSpaceOnUse" gradientTransform="translate(154.5 140) rotate(90) scale(140 154.5)">
<stop stop-color="#DC0BAE" stop-opacity="0.8"/>
<stop offset="1" stop-color="#B4B4B4" stop-opacity="0"/>
</radialGradient>
<clipPath id="clip0_12_45">
<rect width="140.875" height="138" fill="white" transform="translate(84 71)"/>
</clipPath>
</defs>
</svg>
