<svg width="195" height="200" viewBox="0 0 195 200" fill="none" xmlns="http://www.w3.org/2000/svg">
<g filter="url(#filter0_d_18_14)">
<path fill-rule="evenodd" clip-rule="evenodd" d="M97.5476 40C65.7253 40 40 67.4524 40 101.415C40 128.563 56.483 151.543 79.3494 159.676C82.2083 160.288 83.2555 158.355 83.2555 156.729C83.2555 155.305 83.1613 150.425 83.1613 145.34C67.1529 149.001 63.8193 138.019 63.8193 138.019C61.2467 130.901 57.4348 129.072 57.4348 129.072C52.1953 125.31 57.8165 125.31 57.8165 125.31C63.6285 125.717 66.6782 131.614 66.6782 131.614C71.8223 140.968 80.1116 138.325 83.4463 136.698C83.9222 132.732 85.4477 129.987 87.0674 128.462C74.2996 127.038 60.8662 121.751 60.8662 98.1605C60.8662 91.4496 63.1514 85.9591 66.7725 81.689C66.2011 80.1642 64.1998 73.8589 67.3449 65.4197C67.3449 65.4197 72.204 63.7925 83.1601 71.7238C87.8508 70.3795 92.6882 69.6956 97.5476 69.6898C102.407 69.6898 107.36 70.4023 111.934 71.7238C122.891 63.7925 127.75 65.4197 127.75 65.4197C130.895 73.8589 128.893 80.1642 128.322 81.689C132.038 85.9591 134.229 91.4496 134.229 98.1605C134.229 121.751 120.796 126.936 107.932 128.462C110.029 130.393 111.838 134.053 111.838 139.85C111.838 148.085 111.744 154.695 111.744 156.728C111.744 158.355 112.793 160.288 115.65 159.678C138.517 151.542 155 128.563 155 101.415C155.094 67.4524 129.274 40 97.5476 40Z" fill="white"/>
</g>
<defs>
<filter id="filter0_d_18_14" x="0" y="0" width="195" height="199.793" filterUnits="userSpaceOnUse" color-interpolation-filters="sRGB">
<feFlood flood-opacity="0" result="BackgroundImageFix"/>
<feColorMatrix in="SourceAlpha" type="matrix" values="0 0 0 0 0 0 0 0 0 0 0 0 0 0 0 0 0 0 127 0" result="hardAlpha"/>
<feOffset/>
<feGaussianBlur stdDeviation="20"/>
<feComposite in2="hardAlpha" operator="out"/>
<feColorMatrix type="matrix" values="0 0 0 0 0.0321875 0 0 0 0 0.0321875 0 0 0 0 0.858333 0 0 0 1 0"/>
<feBlend mode="normal" in2="BackgroundImageFix" result="effect1_dropShadow_18_14"/>
<feBlend mode="normal" in="SourceGraphic" in2="effect1_dropShadow_18_14" result="shape"/>
</filter>
</defs>
</svg>
