<svg width="14" height="13" viewBox="0 0 14 13" fill="none" xmlns="http://www.w3.org/2000/svg">
<path fill-rule="evenodd" clip-rule="evenodd" d="M6.61565 0C2.95736 0 0 2.97917 0 6.6648C0 9.61093 1.89489 12.1048 4.52359 12.9874C4.85225 13.0538 4.97264 12.844 4.97264 12.6676C4.97264 12.513 4.9618 11.9834 4.9618 11.4316C3.12149 11.8289 2.73826 10.6371 2.73826 10.6371C2.44251 9.8647 2.0043 9.66618 2.0043 9.66618C1.40197 9.25789 2.04818 9.25789 2.04818 9.25789C2.71632 9.30204 3.06692 9.94202 3.06692 9.94202C3.65828 10.9571 4.61121 10.6703 4.99457 10.4937C5.04928 10.0634 5.22465 9.76544 5.41084 9.59996C3.94306 9.44545 2.39877 8.87169 2.39877 6.31164C2.39877 5.58336 2.66148 4.98753 3.07775 4.52414C3.01207 4.35866 2.782 3.6744 3.14356 2.75857C3.14356 2.75857 3.70216 2.58199 4.96167 3.4427C5.50091 3.29681 6.05702 3.22259 6.61565 3.22197C7.17424 3.22197 7.74367 3.29929 8.26949 3.4427C9.52913 2.58199 10.0877 2.75857 10.0877 2.75857C10.4493 3.6744 10.2191 4.35866 10.1534 4.52414C10.5806 4.98753 10.8325 5.58336 10.8325 6.31164C10.8325 8.87169 9.28823 9.43434 7.80948 9.59996C8.05052 9.80958 8.25852 10.2068 8.25852 10.8358C8.25852 11.7295 8.24769 12.4468 8.24769 12.6674C8.24769 12.844 8.36821 13.0538 8.69673 12.9875C11.3254 12.1046 13.2203 9.61093 13.2203 6.6648C13.2312 2.97917 10.263 0 6.61565 0Z" fill="white"/>
</svg>
