<svg width="309" height="280" viewBox="0 0 309 280" fill="none" xmlns="http://www.w3.org/2000/svg">
<rect width="309" height="280" fill="url(#paint0_radial_12_38)"/>
<g clip-path="url(#clip0_12_38)">
<path d="M218 76H90V204H218V76Z" fill="white"/>
<path d="M175.984 176C178.562 180.21 181.916 183.305 187.849 183.305C192.833 183.305 196.017 180.814 196.017 177.372C196.017 173.247 192.745 171.787 187.26 169.387L184.253 168.097C175.573 164.399 169.807 159.767 169.807 149.974C169.807 140.953 176.68 134.086 187.422 134.086C195.07 134.086 200.568 136.747 204.53 143.716L195.163 149.73C193.101 146.032 190.876 144.575 187.422 144.575C183.899 144.575 181.666 146.81 181.666 149.73C181.666 153.338 183.901 154.799 189.062 157.034L192.069 158.322C202.289 162.705 208.059 167.173 208.059 177.218C208.059 188.047 199.552 193.979 188.127 193.979C176.957 193.979 169.74 188.656 166.209 181.679L175.984 176ZM133.494 177.043C135.383 180.395 137.102 183.229 141.235 183.229C145.186 183.229 147.679 181.683 147.679 175.671V134.772H159.707V175.834C159.707 188.288 152.405 193.957 141.747 193.957C132.116 193.957 126.539 188.973 123.703 182.97L133.494 177.043Z" fill="black"/>
</g>
<defs>
<radialGradient id="paint0_radial_12_38" cx="0" cy="0" r="1" gradientUnits="userSpaceOnUse" gradientTransform="translate(154.5 140) rotate(90) scale(140 154.5)">
<stop stop-color="#DC0BAE" stop-opacity="0.8"/>
<stop offset="1" stop-color="#B4B4B4" stop-opacity="0"/>
</radialGradient>
<clipPath id="clip0_12_38">
<rect x="90" y="76" width="128" height="128" rx="10.7509" fill="white"/>
</clipPath>
</defs>
</svg>
