<svg width="309" height="280" viewBox="0 0 309 280" fill="none" xmlns="http://www.w3.org/2000/svg">
<rect width="309" height="280" fill="url(#paint0_radial_12_46)"/>
<g clip-path="url(#clip0_12_46)">
<path d="M222.232 147.562L205.246 139.356L221.337 131.83C222.585 131.245 223.318 129.701 222.455 128.262L220.783 126.326C219.703 125.146 218.532 124.285 217.108 124.845L205.153 129.352C204.892 129.45 204.605 129.462 204.337 129.386L199.709 128.075C199.366 127.978 198.997 128.069 198.738 128.315L193.788 133.014C192.679 126.653 190.093 120.8 186.381 115.833L193.618 115.777C193.929 115.774 194.216 115.604 194.366 115.33L196.928 110.684C197.061 110.442 197.271 110.252 197.525 110.144L209.367 105.095C210.095 104.785 210.542 103.274 210.402 102.294L210.017 98.7573C209.702 97.7417 208.276 96.848 207.595 97.0997L189.781 103.309L195.838 86.6085C196.307 85.312 195.733 83.7029 194.105 83.2948L191.554 83.1089C189.956 83.0377 188.519 83.2571 187.908 84.6603L182.641 96.3003C182.526 96.5542 182.332 96.7649 182.089 96.9013L177.889 99.2468C177.578 99.4209 177.382 99.746 177.372 100.102L177.194 106.928C172.128 103.368 166.211 100.941 159.804 100.019L164.885 94.8577C165.104 94.6351 165.186 94.3122 165.099 94.013L163.625 88.9162C163.548 88.651 163.562 88.3674 163.665 88.1114L168.469 76.1674C168.764 75.4342 168.012 74.0488 167.22 73.4548L164.447 71.2268C163.506 70.732 161.866 71.1077 161.562 71.7675L153.356 88.7545L145.83 72.6629C145.245 71.4144 143.702 70.6824 142.262 71.5449L140.326 73.2176C139.146 74.2968 138.285 75.4682 138.846 76.8924L143.352 88.8472C143.45 89.1086 143.462 89.3943 143.386 89.6628L142.076 94.2912C141.978 94.634 142.069 95.0028 142.315 95.2615L147.014 100.212C140.653 101.322 134.8 103.906 129.834 107.619L129.776 100.383C129.774 100.07 129.603 99.7848 129.331 99.6338L124.684 97.0722C124.442 96.9391 124.252 96.7288 124.144 96.4749L119.095 84.6323C118.785 83.9051 117.274 83.4576 116.293 83.5978L112.757 83.9827C111.742 84.298 110.848 85.7239 111.1 86.4052L117.309 104.219L100.609 98.1622C99.3119 97.6932 97.7028 98.2673 97.2947 99.8953L97.1087 102.447C97.0376 104.044 97.257 105.482 98.6602 106.092L110.3 111.359C110.555 111.474 110.765 111.668 110.901 111.912L113.247 116.111C113.421 116.422 113.746 116.619 114.103 116.628L120.928 116.806C117.368 121.872 114.941 127.789 114.019 134.195L108.858 129.115C108.636 128.896 108.313 128.814 108.013 128.901L102.916 130.375C102.651 130.452 102.368 130.438 102.112 130.335L90.1678 125.531C89.4341 125.236 88.0492 125.988 87.4552 126.78L85.2267 129.553C84.7319 130.494 85.1081 132.134 85.7679 132.438L102.754 140.644L86.6628 148.169C85.4143 148.755 84.6823 150.299 85.5448 151.738L87.2175 153.674C88.2967 154.854 89.4686 155.715 90.8923 155.155L102.848 150.648C103.109 150.55 103.394 150.538 103.663 150.614L108.291 151.925C108.634 152.022 109.003 151.93 109.262 151.685L114.212 146.986C115.322 153.347 117.907 159.2 121.619 164.167L114.382 164.223C114.071 164.226 113.785 164.396 113.634 164.67L111.073 169.316C110.939 169.558 110.729 169.748 110.475 169.856L98.6327 174.905C97.9055 175.215 97.4575 176.726 97.5977 177.706L97.9826 181.243C98.2979 182.258 99.7237 183.152 100.406 182.9L118.219 176.691L112.162 193.391C111.694 194.688 112.267 196.297 113.895 196.705L116.447 196.891C118.044 196.962 119.481 196.743 120.092 195.34L125.359 183.7C125.474 183.446 125.668 183.235 125.911 183.099L130.111 180.753C130.422 180.579 130.619 180.254 130.628 179.898L130.806 173.072C135.872 176.632 141.788 179.059 148.196 179.981L143.115 185.142C142.896 185.365 142.814 185.688 142.901 185.987L144.375 191.084C144.452 191.349 144.437 191.632 144.334 191.889L139.531 203.833C139.236 204.566 139.988 205.951 140.78 206.545L143.553 208.773C144.493 209.268 146.134 208.892 146.438 208.232L154.643 191.245L162.17 207.337C162.755 208.585 164.299 209.318 165.738 208.455L167.674 206.782C168.854 205.703 169.715 204.531 169.154 203.107L164.648 191.153C164.55 190.891 164.538 190.606 164.614 190.337L165.924 185.709C166.021 185.366 165.93 184.997 165.685 184.738L160.987 179.788C167.346 178.678 173.2 176.093 178.167 172.38L178.224 179.618C178.226 179.929 178.397 180.216 178.669 180.366L183.316 182.928C183.558 183.061 183.748 183.271 183.856 183.525L188.905 195.368C189.215 196.095 190.726 196.542 191.707 196.402L195.242 196.017C196.258 195.702 197.152 194.276 196.901 193.595L190.691 175.781L207.391 181.838C208.688 182.307 210.297 181.733 210.705 180.105L210.891 177.553C210.963 175.956 210.743 174.518 209.34 173.908L197.7 168.641C197.446 168.526 197.235 168.332 197.098 168.088L194.753 163.889C194.579 163.578 194.254 163.381 193.897 163.372L187.072 163.194C190.632 158.128 193.059 152.211 193.981 145.805L199.143 150.885C199.365 151.104 199.688 151.185 199.987 151.099L205.084 149.625C205.349 149.548 205.632 149.562 205.888 149.665L217.832 154.469C218.566 154.764 219.951 154.012 220.545 153.22L222.773 150.447C223.268 149.506 222.892 147.866 222.232 147.562ZM182.966 135.494H174.376C173.752 132.655 172.55 130.034 170.898 127.758L176.919 121.738C180.03 125.636 182.171 130.342 182.966 135.494ZM165.22 122.408C162.859 120.898 160.175 119.848 157.292 119.391V110.878C162.492 111.459 167.278 113.399 171.291 116.337L165.22 122.408ZM164.175 140C164.175 145.619 159.62 150.175 154 150.175C148.381 150.175 143.825 145.619 143.825 140C143.825 134.381 148.381 129.825 154 129.825C159.62 129.825 164.175 134.381 164.175 140ZM149.494 111.033V119.623C146.655 120.249 144.034 121.451 141.759 123.102L135.737 117.081C139.636 113.97 144.341 111.829 149.494 111.033ZM136.408 128.779C134.898 131.142 133.848 133.825 133.391 136.707H124.877C125.459 131.508 127.399 126.722 130.337 122.708L136.408 128.779ZM125.034 144.505H133.624C134.249 147.345 135.451 149.966 137.102 152.242L131.081 158.262C127.971 154.364 125.829 149.658 125.034 144.505ZM142.779 157.592C145.141 159.102 147.825 160.152 150.707 160.609V169.122C145.509 168.541 140.722 166.601 136.709 163.663L142.779 157.592ZM158.506 168.966V160.377C161.345 159.751 163.966 158.549 166.241 156.898L172.262 162.919C168.364 166.03 163.658 168.171 158.506 168.966ZM171.593 151.221C173.102 148.858 174.152 146.175 174.609 143.293H183.123C182.541 148.492 180.601 153.278 177.664 157.291L171.593 151.221Z" fill="white"/>
</g>
<defs>
<radialGradient id="paint0_radial_12_46" cx="0" cy="0" r="1" gradientUnits="userSpaceOnUse" gradientTransform="translate(154.5 140) rotate(90) scale(140 154.5)">
<stop stop-color="#DC0BAE" stop-opacity="0.8"/>
<stop offset="1" stop-color="#B4B4B4" stop-opacity="0"/>
</radialGradient>
<clipPath id="clip0_12_46">
<rect width="138" height="138" fill="white" transform="translate(85 71)"/>
</clipPath>
</defs>
</svg>
