<svg width="259" height="258" viewBox="0 0 259 258" fill="none" xmlns="http://www.w3.org/2000/svg">
<g clip-path="url(#clip0_17_28)" filter="url(#filter0_d_17_28)">
<path d="M72.8846 79.0974C72.8846 74.4783 76.724 70.7316 81.4604 70.7316H180.357C185.094 70.7316 188.933 74.4783 188.933 79.0974V179.151C188.933 183.771 185.094 187.517 180.357 187.517H81.4604C76.724 187.517 72.8846 183.771 72.8846 179.151V79.0974Z" fill="white"/>
<g filter="url(#filter1_i_17_28)">
<path fill-rule="evenodd" clip-rule="evenodd" d="M108.063 168.493V115.758H90.5344V168.493H108.063ZM99.2984 108.558C105.411 108.558 109.215 104.508 109.215 99.4476C109.101 94.2731 105.411 90.336 99.4143 90.336C93.4185 90.336 89.4982 94.2731 89.4982 99.4476C89.4982 104.508 93.3019 108.558 99.1841 108.558H99.2984Z" fill="black"/>
</g>
<g filter="url(#filter2_i_17_28)">
<path fill-rule="evenodd" clip-rule="evenodd" d="M117.761 168.493H135.289V139.043C135.289 137.467 135.403 135.893 135.866 134.766C137.133 131.617 140.017 128.356 144.859 128.356C151.202 128.356 153.739 133.191 153.739 140.281V168.493H171.266V138.255C171.266 122.057 162.618 114.52 151.086 114.52C141.63 114.52 137.479 119.806 135.173 123.406H135.29V115.758H117.762C117.992 120.706 117.761 168.493 117.761 168.493Z" fill="black"/>
</g>
</g>
<defs>
<filter id="filter0_d_17_28" x="0" y="-2" width="261" height="261" filterUnits="userSpaceOnUse" color-interpolation-filters="sRGB">
<feFlood flood-opacity="0" result="BackgroundImageFix"/>
<feColorMatrix in="SourceAlpha" type="matrix" values="0 0 0 0 0 0 0 0 0 0 0 0 0 0 0 0 0 0 127 0" result="hardAlpha"/>
<feOffset/>
<feGaussianBlur stdDeviation="35"/>
<feColorMatrix type="matrix" values="0 0 0 0 0 0 0 0 0 0 0 0 0 0 0.545098 0 0 0 1 0"/>
<feBlend mode="normal" in2="BackgroundImageFix" result="effect1_dropShadow_17_28"/>
<feBlend mode="normal" in="SourceGraphic" in2="effect1_dropShadow_17_28" result="shape"/>
</filter>
<filter id="filter1_i_17_28" x="89.4982" y="90.336" width="19.717" height="78.1567" filterUnits="userSpaceOnUse" color-interpolation-filters="sRGB">
<feFlood flood-opacity="0" result="BackgroundImageFix"/>
<feBlend mode="normal" in="SourceGraphic" in2="BackgroundImageFix" result="shape"/>
<feColorMatrix in="SourceAlpha" type="matrix" values="0 0 0 0 0 0 0 0 0 0 0 0 0 0 0 0 0 0 127 0" result="hardAlpha"/>
<feOffset/>
<feGaussianBlur stdDeviation="20"/>
<feComposite in2="hardAlpha" operator="arithmetic" k2="-1" k3="1"/>
<feColorMatrix type="matrix" values="0 0 0 0 0 0 0 0 0 0 0 0 0 0 0.545098 0 0 0 1 0"/>
<feBlend mode="normal" in2="shape" result="effect1_innerShadow_17_28"/>
</filter>
<filter id="filter2_i_17_28" x="117.761" y="114.52" width="53.5044" height="57.9724" filterUnits="userSpaceOnUse" color-interpolation-filters="sRGB">
<feFlood flood-opacity="0" result="BackgroundImageFix"/>
<feBlend mode="normal" in="SourceGraphic" in2="BackgroundImageFix" result="shape"/>
<feColorMatrix in="SourceAlpha" type="matrix" values="0 0 0 0 0 0 0 0 0 0 0 0 0 0 0 0 0 0 127 0" result="hardAlpha"/>
<feOffset dy="4"/>
<feGaussianBlur stdDeviation="15"/>
<feComposite in2="hardAlpha" operator="arithmetic" k2="-1" k3="1"/>
<feColorMatrix type="matrix" values="0 0 0 0 0 0 0 0 0 0 0 0 0 0 0.545098 0 0 0 1 0"/>
<feBlend mode="normal" in2="shape" result="effect1_innerShadow_17_28"/>
</filter>
<clipPath id="clip0_17_28">
<rect width="121" height="121" fill="white" transform="translate(70 68)"/>
</clipPath>
</defs>
</svg>
