<svg width="309" height="280" viewBox="0 0 309 280" fill="none" xmlns="http://www.w3.org/2000/svg">
<rect width="309" height="280" fill="url(#paint0_radial_12_49)"/>
<g clip-path="url(#clip0_12_49)">
<path d="M113.718 196.84C112.629 196.84 111.66 196.773 110.839 196.646V200.264C112.525 200.935 113.919 201.27 115.061 201.27C119.334 201.27 123.272 198.66 126.867 193.417C131.461 186.63 135.176 175.733 137.995 160.757H131.432C130.381 169.475 128.291 178.036 125.204 186.257C125.413 184.698 124.898 181.961 123.675 178.038L118.253 160.757H111.466L119.028 183.87C120.169 187.338 120.744 189.65 120.744 190.784C120.744 192.417 120.013 193.894 118.544 195.214C117.32 196.288 115.717 196.84 113.718 196.84Z" fill="white"/>
<path d="M210.303 150.144V190.635H229.919V185.653H216.904V150.144H210.303Z" fill="white"/>
<path d="M72.7567 158.34H72.8312L83.2729 190.635H88.531L99.0473 158.34H99.107C100.254 169.07 100.926 179.846 101.121 190.635H108.057C107.63 177.095 106.565 163.583 104.865 150.144H96.6979L86.6515 179.902H86.5919L76.635 150.144H68.0579C66.3664 163.582 65.3458 177.095 65 190.635H71.3023C71.5037 178.791 71.9885 168.029 72.7567 158.34Z" fill="white"/>
<path d="M204.314 169.632C204.314 156.237 198.959 149.525 188.241 149.525C182.991 149.525 178.889 151.225 175.935 154.626C172.728 158.348 171.117 163.822 171.117 171.064C171.117 178.18 172.534 183.408 175.398 186.734C178.009 189.74 181.939 191.239 187.205 191.239C189.174 191.239 190.979 191 192.612 190.523L202.494 196.176L205.179 191.627H205.157L197.579 187.965C198.251 187.405 198.899 186.809 199.481 186.138C202.711 182.423 204.314 176.919 204.314 169.632ZM187.883 186.227C184.565 186.227 182.141 185.004 180.589 182.565L180.604 182.528C178.926 179.895 178.091 175.644 178.091 169.819C178.091 159.616 181.253 154.514 187.563 154.514C190.867 154.514 193.306 155.737 194.85 158.176C196.52 160.824 197.356 165.03 197.356 170.796C197.356 181.073 194.193 186.227 187.883 186.227ZM163.45 170.885C163.45 170.885 157.528 167.551 154.597 165.978C151.375 164.218 149.63 162.152 149.63 159.757C149.636 159.02 149.805 158.294 150.124 157.63C150.444 156.966 150.907 156.381 151.479 155.916C152.613 154.902 154.246 154.41 156.357 154.41C158.96 154.41 161.608 154.977 164.293 156.095L165.881 152.612C162.767 150.617 159.138 149.574 155.44 149.614C151.711 149.614 148.69 150.614 146.341 152.65C144.006 154.663 142.835 157.296 142.835 160.593C142.835 164.553 144.401 166.962 147.549 169.215C147.549 169.215 153.329 172.466 156.223 174.025C159.34 175.748 161.056 177.799 161.056 180.216C161.068 181.09 160.872 181.955 160.483 182.739C160.093 183.523 159.523 184.202 158.818 184.72C157.401 185.794 155.455 186.331 152.978 186.331C150.316 186.331 147.37 185.541 144.103 183.93L142.335 187.413C146.132 189.926 150.018 191.187 154.067 191.187C158.401 191.187 161.824 190.09 164.39 187.89C166.955 185.698 168.238 182.871 168.238 179.425L168.283 179.447C168.283 175.502 166.679 173.123 163.45 170.885Z" fill="white"/>
<path d="M187.354 94.0197C186.496 94.0197 185.914 94.1241 185.31 94.2583V94.3553H185.415C185.817 95.1161 186.504 95.6754 187.011 96.3541C187.414 97.1373 187.757 97.9204 188.159 98.6961L188.264 98.5842C188.965 98.0994 189.308 97.3237 189.308 96.1453C189.01 95.8022 188.965 95.4591 188.711 95.1235C188.413 94.6313 187.772 94.3926 187.369 94.0048L187.354 94.0197Z" fill="white"/>
<path d="M241.725 149.45C240.255 147.551 238.507 145.885 236.542 144.505C234.945 143.439 231.455 141.939 230.799 140.149L230.702 140.045C231.791 139.948 233.088 139.56 234.133 139.269C235.826 138.829 237.377 138.926 239.13 138.494C239.92 138.3 240.718 138.054 241.516 137.808V137.367C240.621 136.487 239.95 135.294 239.025 134.474C236.44 132.256 233.687 130.241 230.791 128.447C229.225 127.463 227.241 126.836 225.593 126.001C224.996 125.71 223.997 125.561 223.654 125.069C222.759 124.002 222.236 122.578 221.603 121.302C220.171 118.61 218.768 115.626 217.523 112.785C216.628 110.868 216.083 108.959 214.987 107.199C209.841 98.875 204.269 93.8257 195.7 88.8958C193.858 87.874 191.65 87.4339 189.315 86.8895C188.07 86.8298 186.824 86.7403 185.586 86.6881C184.766 86.345 183.975 85.4127 183.274 84.9652C180.44 83.2051 173.101 79.4013 171.013 84.4357C169.67 87.6129 173.004 90.7454 174.16 92.3564C175.018 93.4752 176.099 94.758 176.696 96.0185C177.046 96.8687 177.143 97.7414 177.494 98.6289C178.285 100.784 179.038 103.178 180.082 105.2C180.626 106.221 181.223 107.303 181.924 108.22C182.327 108.757 183.013 109.003 183.17 109.884C182.469 110.883 182.424 112.33 182.021 113.546C180.231 119.087 180.932 125.941 183.468 130.021C184.266 131.237 186.168 133.929 188.711 132.9C190.949 132.02 190.457 129.238 191.098 126.784C191.247 126.195 191.15 125.807 191.456 125.412V125.524C192.157 126.903 192.858 128.209 193.5 129.588C195.036 131.99 197.721 134.481 199.966 136.144C201.159 137.024 202.106 138.546 203.598 139.09V138.941H203.486C203.166 138.516 202.74 138.315 202.338 137.964C201.393 137.056 200.52 136.076 199.727 135.033C197.628 132.218 195.765 129.234 194.156 126.113C193.335 124.576 192.649 122.921 191.993 121.407C191.695 120.825 191.695 119.945 191.195 119.646C190.449 120.713 189.353 121.645 188.808 122.965C187.861 125.076 187.764 127.664 187.406 130.364C187.205 130.416 187.302 130.364 187.205 130.469C185.609 130.088 185.064 128.462 184.467 127.097C182.976 123.622 182.73 118.035 184.02 114.023C184.371 113.001 185.862 109.764 185.266 108.78C184.952 107.847 183.968 107.318 183.423 106.565C182.725 105.585 182.125 104.538 181.633 103.44C180.44 100.702 179.843 97.6668 178.546 94.9296C177.949 93.6616 176.905 92.3341 176.054 91.1706C175.107 89.8504 174.063 88.9256 173.31 87.3594C173.064 86.8224 172.713 85.9348 173.108 85.3531C173.213 84.9578 173.422 84.8011 173.81 84.6967C174.466 84.1672 176.308 84.8608 176.957 85.1517C178.799 85.8826 180.35 86.5688 181.894 87.598C182.595 88.0828 183.349 89.0076 184.244 89.2538H185.288C186.884 89.5969 188.681 89.3582 190.173 89.7908C192.821 90.6261 195.207 91.8418 197.348 93.1619C203.918 97.2703 209.283 103.045 212.899 109.898C213.495 111.025 213.756 112.061 214.301 113.232C215.345 115.649 216.635 118.088 217.694 120.422C218.739 122.727 219.745 125.084 221.245 126.993C221.99 128.015 224.989 128.552 226.331 129.089C227.323 129.529 228.867 129.932 229.762 130.469C231.477 131.49 233.148 132.669 234.759 133.795C235.579 134.354 238.063 135.577 238.212 136.562C234.222 136.458 231.127 136.853 228.539 137.942C227.793 138.233 226.6 138.233 226.495 139.165C226.905 139.553 226.965 140.187 227.316 140.731C227.912 141.708 228.942 143.021 229.896 143.715C230.94 144.52 231.985 145.296 233.081 145.982C235.02 147.153 237.22 147.846 239.122 149.025C240.204 149.711 241.307 150.584 242.404 151.315C242.948 151.68 243.299 152.344 244 152.575V152.433C243.657 151.993 243.552 151.359 243.217 150.867C242.717 150.375 242.217 149.935 241.725 149.45Z" fill="white"/>
</g>
<defs>
<radialGradient id="paint0_radial_12_49" cx="0" cy="0" r="1" gradientUnits="userSpaceOnUse" gradientTransform="translate(154.5 140) rotate(90) scale(140 154.5)">
<stop stop-color="#DC0BAE" stop-opacity="0.8"/>
<stop offset="1" stop-color="#B4B4B4" stop-opacity="0"/>
</radialGradient>
<clipPath id="clip0_12_49">
<rect width="179" height="179" fill="white" transform="translate(65 51)"/>
</clipPath>
</defs>
</svg>
