<svg width="309" height="280" viewBox="0 0 309 280" fill="none" xmlns="http://www.w3.org/2000/svg">
<rect width="309" height="280" fill="url(#paint0_radial_12_53)"/>
<g clip-path="url(#clip0_12_53)">
<path d="M154 209C192.108 209 223 178.108 223 140C223 101.892 192.108 71 154 71C115.892 71 85 101.892 85 140C85 178.108 115.892 209 154 209Z" fill="white"/>
<path d="M199.621 191.766L138.011 112.4H126.4V167.578H135.688V124.195L192.333 197.383C194.888 195.674 197.324 193.793 199.621 191.766Z" fill="url(#paint1_linear_12_53)"/>
<path d="M182.371 112.4H173.169V167.6H182.371V112.4Z" fill="url(#paint2_linear_12_53)"/>
</g>
<defs>
<radialGradient id="paint0_radial_12_53" cx="0" cy="0" r="1" gradientUnits="userSpaceOnUse" gradientTransform="translate(154.5 140) rotate(90) scale(140 154.5)">
<stop stop-color="#DC0BAE" stop-opacity="0.8"/>
<stop offset="1" stop-color="#B4B4B4" stop-opacity="0"/>
</radialGradient>
<linearGradient id="paint1_linear_12_53" x1="157.464" y1="167.481" x2="182.252" y2="197.992" gradientUnits="userSpaceOnUse">
<stop/>
<stop offset="1" stop-opacity="0"/>
</linearGradient>
<linearGradient id="paint2_linear_12_53" x1="176.948" y1="112.318" x2="176.948" y2="153.166" gradientUnits="userSpaceOnUse">
<stop/>
<stop offset="1" stop-opacity="0"/>
</linearGradient>
<clipPath id="clip0_12_53">
<rect width="138" height="138" fill="white" transform="translate(85 71)"/>
</clipPath>
</defs>
</svg>
