<svg width="309" height="280" viewBox="0 0 309 280" fill="none" xmlns="http://www.w3.org/2000/svg">
<rect width="309" height="280" fill="url(#paint0_radial_12_44)"/>
<g clip-path="url(#clip0_12_44)">
<path d="M153.264 202C152.602 202 151.943 201.827 151.362 201.492L145.307 197.907C144.403 197.402 144.844 197.223 145.143 197.12C146.348 196.697 146.593 196.602 147.88 195.871C148.015 195.794 148.192 195.821 148.331 195.903L152.983 198.663C153.151 198.754 153.389 198.754 153.545 198.663L171.682 188.194C171.85 188.099 171.959 187.904 171.959 187.704V166.775C171.959 166.566 171.85 166.38 171.678 166.275L153.548 155.815C153.38 155.715 153.158 155.715 152.99 155.815L134.864 166.275C134.688 166.375 134.576 166.57 134.576 166.77V187.699C134.576 187.899 134.685 188.09 134.858 188.185L139.824 191.054C142.521 192.403 144.169 190.814 144.169 189.216V168.559C144.169 168.264 144.401 168.037 144.696 168.037H146.993C147.279 168.037 147.515 168.264 147.515 168.559V189.225C147.515 192.82 145.554 194.886 142.144 194.886C141.096 194.886 140.269 194.886 137.963 193.751L133.205 191.009C132.029 190.328 131.303 189.057 131.303 187.699V166.77C131.303 165.408 132.029 164.137 133.205 163.465L151.36 152.991C152.509 152.342 154.034 152.342 155.174 152.991L173.306 163.47C174.478 164.146 175.209 165.413 175.209 166.775V187.704C175.209 189.061 174.478 190.328 173.306 191.009L155.174 201.482C154.593 201.818 153.935 201.991 153.263 201.991" fill="white"/>
<path d="M158.867 187.579C150.931 187.579 149.267 183.936 149.267 180.881C149.267 180.59 149.501 180.359 149.792 180.359H152.135C152.394 180.359 152.612 180.547 152.653 180.803C153.007 183.19 154.06 184.394 158.859 184.394C162.681 184.394 164.307 183.53 164.307 181.503C164.307 180.336 163.843 179.469 157.905 178.888C152.939 178.398 149.87 177.304 149.87 173.331C149.87 169.672 152.957 167.493 158.128 167.493C163.934 167.493 166.813 169.509 167.176 173.84C167.189 173.989 167.135 174.135 167.035 174.244C166.935 174.348 166.794 174.412 166.649 174.412H164.293C164.048 174.412 163.834 174.239 163.784 174.003C163.217 171.493 161.846 170.689 158.119 170.689C153.946 170.689 153.461 172.142 153.461 173.231C153.461 174.552 154.033 174.938 159.662 175.683C165.237 176.423 167.884 177.467 167.884 181.385C167.884 185.335 164.588 187.6 158.84 187.6M180.932 165.404H181.54C182.04 165.404 182.135 165.055 182.135 164.851C182.135 164.315 181.767 164.315 181.563 164.315H180.936L180.932 165.404ZM180.192 163.688H181.54C182.003 163.688 182.911 163.688 182.911 164.723C182.911 165.445 182.448 165.595 182.171 165.686C182.711 165.722 182.748 166.076 182.82 166.576C182.857 166.889 182.916 167.429 183.025 167.611H182.194C182.171 167.429 182.044 166.43 182.044 166.376C181.99 166.154 181.912 166.045 181.635 166.045H180.95V167.615H180.192V163.688ZM178.571 165.641C178.571 167.266 179.883 168.582 181.495 168.582C183.12 168.582 184.432 167.239 184.432 165.641C184.432 164.011 183.102 162.717 181.49 162.717C179.901 162.717 178.566 163.993 178.566 165.636M184.995 165.65C184.995 167.575 183.42 169.145 181.499 169.145C179.592 169.145 178.004 167.593 178.004 165.65C178.004 163.67 179.629 162.154 181.499 162.154C183.383 162.154 184.99 163.675 184.99 165.65" fill="white"/>
<path fill-rule="evenodd" clip-rule="evenodd" d="M97.1008 120.109C97.1008 119.274 96.6604 118.506 95.9395 118.091L76.7102 107.027C76.3855 106.837 76.0219 106.737 75.6533 106.723H75.4544C75.0858 106.737 74.7221 106.837 74.3921 107.027L55.1636 118.091C54.4472 118.509 54.0005 119.276 54.0005 120.111L54.0427 149.911C54.0427 150.325 54.2561 150.71 54.6193 150.915C54.9734 151.133 55.4183 151.133 55.7724 150.915L67.204 144.368C67.9258 143.939 68.3662 143.18 68.3662 142.352V128.431C68.3662 127.6 68.8066 126.833 69.5262 126.42L74.393 123.617C74.7543 123.408 75.1511 123.304 75.5552 123.304C75.9529 123.304 76.3588 123.407 76.7102 123.616L81.5747 126.418C82.2947 126.831 82.7369 127.599 82.7369 128.429V142.35C82.7369 143.176 83.1832 143.939 83.9014 144.366L95.3257 150.908C95.6844 151.121 96.1306 151.121 96.4879 150.908C96.8402 150.704 97.0636 150.318 97.0636 149.905L97.1008 120.109ZM187.84 135.625C187.84 135.832 187.729 136.024 187.549 136.127L180.944 139.934C180.765 140.037 180.543 140.037 180.365 139.934L173.759 136.127C173.577 136.024 173.468 135.832 173.468 135.625V127.999C173.468 127.791 173.577 127.6 173.754 127.495L180.356 123.682C180.537 123.578 180.76 123.578 180.941 123.682L187.547 127.495C187.728 127.6 187.837 127.791 187.837 127.999L187.84 135.625ZM189.624 79.147C189.263 78.9463 188.825 78.9518 188.469 79.1593C188.115 79.3681 187.896 79.7494 187.896 80.1626V109.672C187.896 109.963 187.742 110.231 187.49 110.376C187.24 110.521 186.929 110.521 186.677 110.376L181.86 107.601C181.143 107.187 180.26 107.187 179.54 107.601L160.304 118.703C159.585 119.116 159.142 119.883 159.142 120.71V142.919C159.142 143.75 159.585 144.513 160.304 144.93L179.54 156.039C180.258 156.453 181.142 156.453 181.863 156.039L201.098 144.926C201.816 144.508 202.261 143.745 202.261 142.914V87.5636C202.261 86.721 201.802 85.946 201.067 85.5342L189.624 79.147ZM253.679 127.799C254.394 127.384 254.834 126.617 254.834 125.791V120.409C254.834 119.581 254.393 118.816 253.677 118.4L234.564 107.304C233.842 106.886 232.957 106.886 232.235 107.304L213.004 118.404C212.282 118.822 211.842 119.585 211.842 120.415V142.616C211.842 143.451 212.291 144.223 213.013 144.636L232.122 155.527C232.825 155.931 233.688 155.936 234.401 155.541L245.959 149.117C246.323 148.913 246.554 148.527 246.554 148.109C246.554 147.691 246.332 147.301 245.968 147.097L226.619 135.992C226.256 135.788 226.034 135.402 226.034 134.989V128.024C226.034 127.609 226.252 127.225 226.615 127.018L232.635 123.545C232.993 123.336 233.434 123.336 233.792 123.545L239.817 127.018C240.176 127.223 240.398 127.609 240.398 128.022V133.497C240.398 133.91 240.62 134.296 240.979 134.505C241.338 134.709 241.783 134.709 242.141 134.5L253.679 127.799Z" fill="white"/>
<path fill-rule="evenodd" clip-rule="evenodd" d="M233.118 126.76C233.254 126.68 233.425 126.68 233.563 126.76L237.254 128.889C237.392 128.969 237.476 129.116 237.476 129.275V133.538C237.476 133.697 237.392 133.844 237.254 133.924L233.563 136.053C233.425 136.134 233.254 136.134 233.118 136.053L229.429 133.924C229.288 133.844 229.202 133.697 229.202 133.538V129.275C229.202 129.116 229.284 128.969 229.425 128.889L233.118 126.76Z" fill="white"/>
<mask id="mask0_12_44" style="mask-type:luminance" maskUnits="userSpaceOnUse" x="106" y="107" width="44" height="49">
<path d="M126.968 107.415L107.841 118.455C107.125 118.868 106.685 119.631 106.685 120.455V142.55C106.685 143.375 107.125 144.137 107.841 144.55L126.969 155.599C127.684 156.01 128.566 156.01 129.28 155.599L148.405 144.55C149.118 144.137 149.558 143.374 149.558 142.55V120.455C149.558 119.631 149.118 118.868 148.4 118.455L129.278 107.415C128.92 107.209 128.52 107.106 128.121 107.106C127.721 107.106 127.322 107.209 126.963 107.415" fill="white"/>
</mask>
<g mask="url(#mask0_12_44)">
<path d="M168.887 116.58L114.991 90.1623L87.3562 146.536L141.251 172.956L168.887 116.58Z" fill="url(#paint1_linear_12_44)"/>
</g>
<mask id="mask1_12_44" style="mask-type:luminance" maskUnits="userSpaceOnUse" x="107" y="107" width="42" height="49">
<path d="M107.159 143.953C107.342 144.19 107.571 144.396 107.84 144.55L124.247 154.027L126.981 155.598C127.389 155.834 127.855 155.934 128.313 155.9C128.465 155.888 128.618 155.859 128.767 155.817L148.939 118.88C148.785 118.712 148.604 118.571 148.402 118.453L135.878 111.221L129.258 107.412C129.07 107.303 128.866 107.226 128.658 107.172L107.159 143.953Z" fill="white"/>
</mask>
<g mask="url(#mask1_12_44)">
<path d="M83.8567 124.394L121.913 175.901L172.242 138.716L134.184 87.2104L83.8567 124.394Z" fill="url(#paint2_linear_12_44)"/>
</g>
<mask id="mask2_12_44" style="mask-type:luminance" maskUnits="userSpaceOnUse" x="107" y="107" width="43" height="49">
<path d="M127.892 107.119C127.571 107.151 127.258 107.251 126.969 107.415L107.896 118.423L128.462 155.882C128.748 155.841 129.03 155.746 129.284 155.599L148.411 144.55C149.001 144.208 149.405 143.629 149.527 142.972L128.562 107.157C128.408 107.126 128.253 107.11 128.094 107.11C128.031 107.11 127.967 107.114 127.904 107.119" fill="white"/>
</mask>
<g mask="url(#mask2_12_44)">
<path d="M107.896 107.11V155.883H149.519V107.11H107.896Z" fill="url(#paint3_linear_12_44)"/>
</g>
</g>
<defs>
<radialGradient id="paint0_radial_12_44" cx="0" cy="0" r="1" gradientUnits="userSpaceOnUse" gradientTransform="translate(154.5 140) rotate(90) scale(140 154.5)">
<stop stop-color="#DC0BAE" stop-opacity="0.8"/>
<stop offset="1" stop-color="#B4B4B4" stop-opacity="0"/>
</radialGradient>
<linearGradient id="paint1_linear_12_44" x1="141.923" y1="103.33" x2="114.29" y2="159.7" gradientUnits="userSpaceOnUse">
<stop offset="0.270833" stop-color="#2D2D2D"/>
<stop offset="0.541667" stop-color="#7B7B7B"/>
<stop offset="0.864583" stop-color="white"/>
</linearGradient>
<linearGradient id="paint2_linear_12_44" x1="103.113" y1="150.443" x2="153.444" y2="113.253" gradientUnits="userSpaceOnUse">
<stop offset="0.145833" stop-color="#B3B3B3"/>
<stop offset="0.453125" stop-color="#0A0A0A"/>
<stop offset="1" stop-color="#747474"/>
</linearGradient>
<linearGradient id="paint3_linear_12_44" x1="107.91" y1="131.498" x2="149.527" y2="131.498" gradientUnits="userSpaceOnUse">
<stop stop-color="#A7A7A7"/>
<stop offset="0.302083" stop-color="#9E9C9C"/>
<stop offset="0.46875" stop-color="#838181"/>
<stop offset="0.848958" stop-color="#373737"/>
<stop offset="1" stop-color="#353535"/>
</linearGradient>
<clipPath id="clip0_12_44">
<rect width="200.834" height="123" fill="white" transform="translate(54 79)"/>
</clipPath>
</defs>
</svg>
