<svg width="309" height="280" viewBox="0 0 309 280" fill="none" xmlns="http://www.w3.org/2000/svg">
<rect width="309" height="280" fill="url(#paint0_radial_12_35)"/>
<g clip-path="url(#clip0_12_35)">
<path d="M226.211 151.215C219.234 151.252 213.169 152.932 208.091 155.416C206.228 151.727 204.365 148.439 204.036 146.028C203.671 143.215 203.233 141.498 203.671 138.137C204.109 134.776 206.082 129.99 206.046 129.625C206.009 129.259 205.607 127.542 201.589 127.506C197.57 127.469 194.1 128.273 193.698 129.333C193.296 130.392 192.529 132.803 192.017 135.287C191.323 138.94 183.98 151.982 179.779 158.814C178.427 156.147 177.258 153.809 177.003 151.946C176.637 149.133 176.199 147.416 176.637 144.055C177.076 140.694 179.049 135.908 179.012 135.543C178.975 135.178 178.574 133.461 174.555 133.424C170.537 133.388 167.066 134.191 166.664 135.251C166.262 136.31 165.824 138.794 164.984 141.205C164.143 143.617 154.389 165.39 151.832 171.015C150.517 173.901 149.385 176.203 148.581 177.774C148.581 177.774 148.544 177.883 148.435 178.066C147.741 179.418 147.339 180.148 147.339 180.148C147.339 180.148 147.339 180.148 147.339 180.185C146.791 181.171 146.206 182.085 145.914 182.085C145.695 182.085 145.293 179.454 145.987 175.874C147.448 168.312 150.919 156.549 150.882 156.147C150.882 155.928 151.54 153.882 148.617 152.823C145.768 151.763 144.745 153.517 144.489 153.517C144.234 153.517 144.051 154.138 144.051 154.138C144.051 154.138 147.229 140.913 137.987 140.913C132.215 140.913 124.251 147.233 120.305 152.932C117.821 154.284 112.524 157.17 106.861 160.275C104.706 161.481 102.478 162.686 100.395 163.819C100.249 163.673 100.103 163.49 99.9569 163.344C88.7782 151.398 68.1011 142.959 68.9779 126.921C69.3067 121.076 71.3159 105.733 108.688 87.1017C139.448 71.9409 163.924 76.1421 168.162 85.4577C174.226 98.7553 155.047 123.451 123.264 127.031C111.136 128.383 104.779 123.707 103.172 121.953C101.491 120.127 101.236 120.017 100.615 120.382C99.5916 120.93 100.249 122.574 100.615 123.524C101.564 126.008 105.473 130.392 112.086 132.547C117.931 134.447 132.142 135.506 149.348 128.858C168.6 121.405 183.652 100.692 179.231 83.3389C174.811 65.7305 145.585 59.9219 117.931 69.749C101.491 75.5941 83.6637 84.8002 70.841 96.7826C55.6072 111.03 53.1961 123.414 54.1825 128.602C57.7261 147.014 83.1157 158.996 93.2716 167.874C92.7602 168.166 92.2852 168.422 91.8834 168.641C86.8055 171.162 67.4436 181.281 62.6213 191.985C57.1416 204.113 63.4981 212.808 67.6993 213.977C80.7412 217.594 94.1484 211.091 101.345 200.351C108.542 189.61 107.665 175.655 104.341 169.262C104.304 169.189 104.268 169.116 104.195 169.043C105.51 168.276 106.861 167.472 108.177 166.705C110.77 165.17 113.328 163.746 115.52 162.577C114.277 165.974 113.364 170.029 112.926 175.874C112.378 182.742 115.191 191.656 118.88 195.163C120.524 196.697 122.461 196.734 123.703 196.734C128.013 196.734 129.95 193.154 132.105 188.916C134.735 183.729 137.11 177.701 137.11 177.701C137.11 177.701 134.151 193.994 142.188 193.994C145.11 193.994 148.069 190.195 149.385 188.259C149.385 188.295 149.385 188.295 149.385 188.295C149.385 188.295 149.458 188.185 149.604 187.93C149.896 187.455 150.079 187.163 150.079 187.163C150.079 187.163 150.079 187.126 150.079 187.089C151.248 185.044 153.878 180.404 157.787 172.696C162.828 162.759 167.687 150.338 167.687 150.338C167.687 150.338 168.125 153.371 169.623 158.412C170.5 161.371 172.327 164.622 173.788 167.764C172.619 169.408 171.888 170.321 171.888 170.321C171.888 170.321 171.888 170.321 171.925 170.358C170.975 171.6 169.952 172.952 168.82 174.267C164.838 179.016 160.088 184.459 159.431 186.03C158.664 187.893 158.846 189.245 160.308 190.341C161.367 191.145 163.267 191.254 165.203 191.145C168.783 190.889 171.304 190.012 172.546 189.464C174.482 188.77 176.747 187.711 178.866 186.14C182.775 183.254 185.149 179.126 184.93 173.682C184.821 170.687 183.834 167.691 182.629 164.878C182.994 164.367 183.323 163.855 183.688 163.344C189.862 154.32 194.648 144.42 194.648 144.42C194.648 144.42 195.086 147.452 196.584 152.494C197.314 155.051 198.812 157.827 200.127 160.531C194.319 165.243 190.739 170.723 189.46 174.303C187.159 180.952 188.949 183.948 192.346 184.642C193.88 184.971 196.072 184.24 197.68 183.546C199.726 182.888 202.137 181.756 204.438 180.075C208.347 177.189 212.11 173.171 211.891 167.728C211.781 165.243 211.124 162.796 210.21 160.421C215.142 158.375 221.499 157.243 229.609 158.193C246.998 160.239 250.432 171.089 249.774 175.655C249.117 180.221 245.464 182.706 244.258 183.473C243.052 184.24 242.651 184.496 242.76 185.044C242.906 185.847 243.491 185.811 244.514 185.665C245.938 185.409 253.647 181.975 253.975 173.573C254.523 162.832 244.294 151.106 226.211 151.215ZM92.0661 196.442C86.294 202.725 78.257 205.1 74.7865 203.09C71.0602 200.935 72.5215 191.656 79.6087 185.007C83.9194 180.952 89.4723 177.189 93.162 174.888C94.0022 174.376 95.2443 173.646 96.7421 172.732C96.9979 172.586 97.144 172.513 97.144 172.513C97.4362 172.331 97.7285 172.148 98.0208 171.965C100.615 181.464 98.1303 189.829 92.0661 196.442ZM134.078 167.874C132.068 172.769 127.867 185.299 125.31 184.605C123.118 184.021 121.766 174.523 124.872 165.134C126.443 160.421 129.767 154.795 131.703 152.603C134.845 149.096 138.315 147.927 139.156 149.352C140.215 151.215 135.32 164.805 134.078 167.874ZM168.747 184.459C167.906 184.898 167.103 185.19 166.737 184.971C166.482 184.825 167.103 184.24 167.103 184.24C167.103 184.24 171.45 179.564 173.167 177.445C174.153 176.203 175.322 174.742 176.564 173.098C176.564 173.244 176.564 173.427 176.564 173.573C176.564 179.162 171.158 182.925 168.747 184.459ZM195.488 178.358C194.867 177.92 194.976 176.459 197.059 171.892C197.862 170.102 199.762 167.107 203.013 164.221C203.379 165.39 203.634 166.522 203.598 167.581C203.561 174.632 198.52 177.262 195.488 178.358Z" fill="white"/>
</g>
<defs>
<radialGradient id="paint0_radial_12_35" cx="0" cy="0" r="1" gradientUnits="userSpaceOnUse" gradientTransform="translate(154.5 140) rotate(90) scale(140 154.5)">
<stop stop-color="#DC0BAE" stop-opacity="0.8"/>
<stop offset="1" stop-color="#B4B4B4" stop-opacity="0"/>
</radialGradient>
<clipPath id="clip0_12_35">
<rect width="200.122" height="150" fill="white" transform="translate(54 65)"/>
</clipPath>
</defs>
</svg>
