<svg width="309" height="280" viewBox="0 0 309 280" fill="none" xmlns="http://www.w3.org/2000/svg">
<rect width="309" height="280" fill="url(#paint0_radial_12_41)"/>
<g clip-path="url(#clip0_12_41)">
<path d="M205.5 76H102.5C95.5964 76 90 81.5964 90 88.5V191.5C90 198.404 95.5964 204 102.5 204H205.5C212.404 204 218 198.404 218 191.5V88.5C218 81.5964 212.404 76 205.5 76Z" fill="white"/>
<path d="M205.5 76H102.5C95.5964 76 90 81.5964 90 88.5V191.5C90 198.404 95.5964 204 102.5 204H205.5C212.404 204 218 198.404 218 191.5V88.5C218 81.5964 212.404 76 205.5 76Z" fill="white"/>
<path fill-rule="evenodd" clip-rule="evenodd" d="M169.235 177.856V190.371C171.269 191.414 173.675 192.196 176.453 192.718C179.231 193.239 182.159 193.5 185.237 193.5C188.237 193.5 191.086 193.213 193.786 192.64C196.486 192.066 198.853 191.121 200.888 189.804C202.922 188.488 204.533 186.767 205.72 184.642C206.906 182.517 207.5 179.89 207.5 176.761C207.5 174.493 207.161 172.505 206.483 170.797C205.804 169.089 204.826 167.57 203.548 166.241C202.27 164.911 200.738 163.718 198.951 162.662C197.164 161.606 195.149 160.608 192.906 159.67C191.263 158.992 189.789 158.334 188.485 157.695C187.18 157.056 186.072 156.404 185.159 155.74C184.246 155.075 183.542 154.371 183.046 153.628C182.551 152.884 182.303 152.044 182.303 151.105C182.303 150.245 182.525 149.469 182.968 148.778C183.412 148.087 184.038 147.494 184.846 146.998C185.655 146.503 186.646 146.118 187.82 145.844C188.994 145.571 190.297 145.434 191.732 145.434C192.775 145.434 193.878 145.512 195.038 145.669C196.199 145.825 197.366 146.066 198.54 146.392C199.714 146.718 200.855 147.129 201.964 147.624C203.072 148.12 204.096 148.693 205.035 149.345V137.651C203.131 136.921 201.051 136.38 198.795 136.028C196.538 135.676 193.949 135.5 191.028 135.5C188.054 135.5 185.237 135.819 182.577 136.458C179.916 137.097 177.575 138.094 175.553 139.45C173.532 140.806 171.934 142.533 170.761 144.632C169.587 146.731 169 149.241 169 152.161C169 155.889 170.076 159.07 172.228 161.704C174.38 164.337 177.647 166.566 182.029 168.392C183.75 169.096 185.355 169.786 186.841 170.464C188.328 171.142 189.613 171.846 190.695 172.576C191.778 173.306 192.632 174.101 193.258 174.962C193.884 175.822 194.197 176.8 194.197 177.895C194.197 178.703 194.002 179.453 193.61 180.144C193.219 180.835 192.626 181.435 191.83 181.943C191.035 182.452 190.043 182.849 188.856 183.136C187.669 183.423 186.281 183.566 184.689 183.566C181.977 183.566 179.29 183.09 176.63 182.138C173.969 181.187 171.504 179.76 169.235 177.856ZM148.195 147.021H164.25V136.75H119.5V147.021H135.477V192.75H148.195V147.021Z" fill="black"/>
</g>
<defs>
<radialGradient id="paint0_radial_12_41" cx="0" cy="0" r="1" gradientUnits="userSpaceOnUse" gradientTransform="translate(154.5 140) rotate(90) scale(140 154.5)">
<stop stop-color="#DC0BAE" stop-opacity="0.8"/>
<stop offset="1" stop-color="#B4B4B4" stop-opacity="0"/>
</radialGradient>
<clipPath id="clip0_12_41">
<rect width="128" height="128" fill="white" transform="translate(90 76)"/>
</clipPath>
</defs>
</svg>
