<svg width="309" height="280" viewBox="0 0 309 280" fill="none" xmlns="http://www.w3.org/2000/svg">
<rect width="309" height="280" fill="url(#paint0_radial_12_52)"/>
<g clip-path="url(#clip0_12_52)">
<path d="M147.262 71.2965C133.731 72.7789 121.009 78.0078 110.74 86.2824C107.263 89.0856 101.576 94.9344 99.0696 98.2766C91.927 107.818 87.3719 118.707 85.6469 130.432C85.0539 134.394 84.8653 141.968 85.2426 145.93C86.3747 157.6 90.0942 168.382 96.1586 177.573C107.317 194.526 124.379 205.388 144.432 208.353C148.394 208.946 155.968 209.135 159.93 208.757C171.6 207.625 182.382 203.906 191.573 197.841C208.526 186.683 219.388 169.622 222.353 149.568C222.946 145.606 223.135 138.032 222.757 134.07C221.383 119.947 216.343 107.441 207.718 96.7403C204.914 93.2633 199.066 87.5762 195.723 85.0696C186.182 77.927 175.374 73.4258 163.568 71.6469C160.307 71.1617 150.442 70.9461 147.262 71.2965ZM171.762 134.582C181.115 150.943 188.77 164.366 188.77 164.42C188.77 164.473 173.433 164.527 154.674 164.527C135.914 164.527 120.578 164.473 120.578 164.393C120.578 164.177 154.62 104.664 154.701 104.772C154.728 104.799 162.436 118.222 171.762 134.582Z" fill="white"/>
</g>
<defs>
<radialGradient id="paint0_radial_12_52" cx="0" cy="0" r="1" gradientUnits="userSpaceOnUse" gradientTransform="translate(154.5 140) rotate(90) scale(140 154.5)">
<stop stop-color="#DC0BAE" stop-opacity="0.8"/>
<stop offset="1" stop-color="#B4B4B4" stop-opacity="0"/>
</radialGradient>
<clipPath id="clip0_12_52">
<rect width="138" height="138" fill="white" transform="translate(85 71)"/>
</clipPath>
</defs>
</svg>
