<svg width="309" height="280" viewBox="0 0 309 280" fill="none" xmlns="http://www.w3.org/2000/svg">
<rect width="309" height="280" fill="url(#paint0_radial_12_54)"/>
<g clip-path="url(#clip0_12_54)">
<mask id="mask0_12_54" style="mask-type:alpha" maskUnits="userSpaceOnUse" x="75" y="69" width="141" height="141">
<path fill-rule="evenodd" clip-rule="evenodd" d="M174.986 209.037C177.207 209.902 179.739 209.847 181.98 208.768L211.01 194.8C214.06 193.332 216 190.245 216 186.858V92.1428C216 88.7559 214.06 85.6687 211.01 84.2009L181.98 70.232C179.039 68.8165 175.596 69.1632 173.014 71.0402C172.645 71.3083 172.294 71.6077 171.964 71.9376L116.391 122.639L92.184 104.264C89.9305 102.553 86.7786 102.693 84.6858 104.597L76.9219 111.659C74.3619 113.988 74.359 118.015 76.9155 120.348L97.9084 139.5L76.9155 158.652C74.359 160.985 74.3619 165.012 76.9219 167.341L84.6858 174.403C86.7786 176.307 89.9305 176.447 92.184 174.737L116.391 156.362L171.964 207.063C172.843 207.942 173.876 208.605 174.986 209.037ZM180.771 107.491L138.604 139.5L180.771 171.509V107.491Z" fill="white"/>
</mask>
<g mask="url(#mask0_12_54)">
<path d="M211.011 84.2228L181.958 70.2346C178.595 68.6155 174.577 69.2985 171.938 71.9376L76.831 158.652C74.2729 160.985 74.2758 165.012 76.8374 167.341L84.6059 174.403C86.7001 176.307 89.8539 176.447 92.1087 174.737L206.639 87.8517C210.481 84.9368 216 87.6773 216 92.5002V92.1629C216 88.7775 214.061 85.6914 211.011 84.2228Z" fill="#878787"/>
<g filter="url(#filter0_d_12_54)">
<path d="M211.011 194.777L181.958 208.766C178.595 210.385 174.577 209.702 171.938 207.063L76.831 120.348C74.2729 118.015 74.2758 113.988 76.8374 111.659L84.6059 104.597C86.7001 102.693 89.8539 102.553 92.1087 104.263L206.639 191.148C210.481 194.063 216 191.323 216 186.5V186.837C216 190.223 214.061 193.309 211.011 194.777Z" fill="#DEDFE0"/>
</g>
<g filter="url(#filter1_d_12_54)">
<path d="M181.96 208.768C178.596 210.386 174.577 209.702 171.938 207.062C175.19 210.314 180.75 208.011 180.75 203.412V75.5877C180.75 70.9887 175.19 68.6854 171.938 71.9374C174.577 69.2981 178.596 68.6141 181.96 70.2318L211.007 84.2008C214.059 85.6686 216 88.7558 216 92.1426V186.858C216 190.245 214.059 193.332 211.007 194.8L181.96 208.768Z" fill="#C5C5C5"/>
</g>
<g style="mix-blend-mode:overlay" opacity="0.25">
<path fill-rule="evenodd" clip-rule="evenodd" d="M174.9 209.037C177.121 209.902 179.653 209.847 181.895 208.768L210.924 194.8C213.974 193.332 215.914 190.245 215.914 186.858V92.1427C215.914 88.7558 213.975 85.6686 210.924 84.2008L181.895 70.2319C178.953 68.8164 175.51 69.1631 172.928 71.0401C172.56 71.3082 172.208 71.6076 171.879 71.9375L116.305 122.638L92.0982 104.264C89.8449 102.553 86.6929 102.693 84.6001 104.597L76.8362 111.659C74.2762 113.988 74.2733 118.015 76.8298 120.348L97.8227 139.5L76.8298 158.652C74.2733 160.985 74.2762 165.012 76.8362 167.341L84.6001 174.403C86.6929 176.307 89.8449 176.447 92.0982 174.737L116.305 156.362L171.879 207.063C172.758 207.942 173.79 208.605 174.9 209.037ZM180.686 107.491L138.518 139.5L180.686 171.509V107.491Z" fill="url(#paint1_linear_12_54)"/>
</g>
</g>
</g>
<defs>
<filter id="filter0_d_12_54" x="68.3501" y="96.5047" width="154.214" height="119.695" filterUnits="userSpaceOnUse" color-interpolation-filters="sRGB">
<feFlood flood-opacity="0" result="BackgroundImageFix"/>
<feColorMatrix in="SourceAlpha" type="matrix" values="0 0 0 0 0 0 0 0 0 0 0 0 0 0 0 0 0 0 127 0" result="hardAlpha"/>
<feOffset/>
<feGaussianBlur stdDeviation="3.28213"/>
<feColorMatrix type="matrix" values="0 0 0 0 0 0 0 0 0 0 0 0 0 0 0 0 0 0 0.25 0"/>
<feBlend mode="overlay" in2="BackgroundImageFix" result="effect1_dropShadow_12_54"/>
<feBlend mode="normal" in="SourceGraphic" in2="effect1_dropShadow_12_54" result="shape"/>
</filter>
<filter id="filter1_d_12_54" x="165.373" y="62.7992" width="57.191" height="153.402" filterUnits="userSpaceOnUse" color-interpolation-filters="sRGB">
<feFlood flood-opacity="0" result="BackgroundImageFix"/>
<feColorMatrix in="SourceAlpha" type="matrix" values="0 0 0 0 0 0 0 0 0 0 0 0 0 0 0 0 0 0 127 0" result="hardAlpha"/>
<feOffset/>
<feGaussianBlur stdDeviation="3.28213"/>
<feColorMatrix type="matrix" values="0 0 0 0 0 0 0 0 0 0 0 0 0 0 0 0 0 0 0.25 0"/>
<feBlend mode="overlay" in2="BackgroundImageFix" result="effect1_dropShadow_12_54"/>
<feBlend mode="normal" in="SourceGraphic" in2="effect1_dropShadow_12_54" result="shape"/>
</filter>
<radialGradient id="paint0_radial_12_54" cx="0" cy="0" r="1" gradientUnits="userSpaceOnUse" gradientTransform="translate(154.5 140) rotate(90) scale(140 154.5)">
<stop stop-color="#DC0BAE" stop-opacity="0.8"/>
<stop offset="1" stop-color="#B4B4B4" stop-opacity="0"/>
</radialGradient>
<linearGradient id="paint1_linear_12_54" x1="145.414" y1="69.3635" x2="145.414" y2="209.637" gradientUnits="userSpaceOnUse">
<stop stop-color="#E1E1E1"/>
<stop offset="1" stop-color="#D6D6D6" stop-opacity="0"/>
</linearGradient>
<clipPath id="clip0_12_54">
<rect width="141" height="141" fill="white" transform="translate(75 69)"/>
</clipPath>
</defs>
</svg>
