<svg width="309" height="280" viewBox="0 0 309 280" fill="none" xmlns="http://www.w3.org/2000/svg">
<rect width="309" height="280" fill="url(#paint0_radial_310_23)"/>
<g clip-path="url(#clip0_310_23)">
<path d="M168.897 102.472C165.058 104.391 163.394 107.975 163.394 117.701C163.394 117.701 165.314 115.781 168.385 114.629C170.625 113.797 172.224 112.71 173.376 111.878C176.703 109.382 177.215 106.375 177.215 101.128C177.151 101.128 171.904 100.808 168.897 102.472Z" fill="black"/>
<path d="M145.414 104.711C142.086 107.463 141.255 112.198 141.255 112.198L130.505 153.405L121.675 119.684C120.843 116.101 119.179 111.686 116.684 108.614C113.612 104.711 107.214 104.455 106.446 104.455C105.87 104.455 99.5351 104.711 96.2077 108.614C93.7122 111.686 92.0486 116.101 91.2167 119.684L82.8984 153.405L72.1486 112.198C72.1486 112.198 71.3167 107.783 67.9894 104.711C62.7424 99.9762 55 101.128 55 101.128L75.4759 178.232C75.4759 178.232 82.1305 178.808 85.4579 177.145C89.873 174.905 92.1125 173.305 94.608 162.748C97.1035 153.341 103.758 125.955 104.27 124.035C104.526 123.204 105.102 120.708 106.766 120.708C108.429 120.708 109.005 122.948 109.261 124.035C109.837 125.955 116.428 153.341 118.923 162.748C121.675 173.241 123.594 174.905 128.073 177.145C131.401 178.808 138.055 178.232 138.055 178.232L158.403 101.128C158.403 101.128 150.661 100.04 145.414 104.711Z" fill="white"/>
<path d="M177.152 113.541C177.152 113.541 175.744 115.461 172.992 117.125C171.073 118.213 169.409 118.788 167.489 119.876C164.162 121.54 163.33 123.204 163.33 125.699V126.531V130.69V131.522V177.977C163.33 177.977 168.577 178.552 171.905 176.889C176.32 174.649 177.152 172.474 177.152 163.068V116.613V113.541Z" fill="white"/>
<path d="M228.021 139.84L254 101.384C254 101.384 243.25 99.4643 237.683 104.455C234.1 107.527 230.517 113.286 230.517 113.286L221.111 127.107C220.535 127.939 220.023 128.514 219.191 128.514C218.359 128.514 217.527 127.683 217.271 127.107L207.865 113.286C207.865 113.286 204.026 107.783 200.699 104.455C195.196 99.4643 184.382 101.384 184.382 101.384L209.529 139.776L183.806 178.168C183.806 178.168 195.132 179.576 200.699 174.585C204.282 171.514 207.609 166.267 207.609 166.267L217.015 152.446C217.591 151.614 218.103 151.038 218.935 151.038C219.767 151.038 220.599 151.87 220.855 152.446L230.261 166.267C230.261 166.267 233.844 171.514 237.171 174.585C242.674 179.576 253.744 178.168 253.744 178.168L228.021 139.84Z" fill="white"/>
</g>
<defs>
<radialGradient id="paint0_radial_310_23" cx="0" cy="0" r="1" gradientUnits="userSpaceOnUse" gradientTransform="translate(154.5 140) rotate(90) scale(140 154.5)">
<stop stop-color="#DC0BAE"/>
<stop offset="1" stop-color="#999999" stop-opacity="0"/>
</radialGradient>
<clipPath id="clip0_310_23">
<rect width="199" height="77.4244" fill="white" transform="translate(55 101)"/>
</clipPath>
</defs>
</svg>
